<?xml version="1.0" encoding="utf-8"?>
<!-- Generator: Adobe Illustrator 24.1.1, SVG Export Plug-In . SVG Version: 6.00 Build 0)  -->
<svg version="1.1" id="Layer_1" xmlns="http://www.w3.org/2000/svg" xmlns:xlink="http://www.w3.org/1999/xlink" x="0px" y="0px"
	 width="300px" height="300px" viewBox="0 0 300 300" style="enable-background:new 0 0 300 300;" xml:space="preserve">
<style type="text/css">
	.st0{fill:#3CB4E6;}
	.st1{fill:#FFFFFF;}
</style>
<g>
	<g>
		<g>
			<path class="st0" d="M150,300c82.9,0,150-67.2,150-150C300,67.2,232.8,0,150,0C67.2,0,0,67.2,0,150C0,232.8,67.2,300,150,300"/>
		</g>
	</g>
	<g>
		<path class="st1" d="M34.9,209.4v1.4c0,4.3,1.2,7.1,6.1,7.1c2.8,0,5.5-1.8,5.5-5.7c0-4.2-2.1-5.7-8.2-7.8c-8.2-2.8-12-6.2-12-13.9
			c0-8.9,5.5-13.5,14.2-13.5c8.2,0,14.2,3.6,14.2,12.3v1.3h-8.9c0-4.3-1.5-6.8-5-6.8c-4.2,0-5.3,2.6-5.3,5.3c0,2.8,0.8,4.6,4.8,6.2
			l7.1,3.1c7,3,8.7,6.5,8.7,12.1c0,9.7-5.9,14.1-16,14.1c-10.5,0-14.6-4.9-14.6-13.4v-1.9C25.6,209.4,34.9,209.4,34.9,209.4z"/>
		<path class="st1" d="M87.7,177.8v7.6h-10v38.3h-9.3v-38.3h-10v-7.6H87.7z"/>
		<path class="st1" d="M91.8,177.8h13.8l6.5,32.4h0.1l6.6-32.4h13.7v45.9h-8.5v-36.6h-0.1l-8.2,36.6h-7.2l-8.2-36.6h-0.1v36.6h-8.5
			L91.8,177.8L91.8,177.8z"/>
		<path class="st1" d="M147.5,198.1h2.8c4.8,0,7-3.5,7-8.1c0-4.2-1.5-7.6-5.9-7.6c-6,0-6.5,5.5-6.5,8.9h-5.7
			c0-7.8,3.7-13.1,12.1-13.1c9.5,0,11.7,6.8,11.7,11.8c0,4.6-2.3,8.6-7.1,9.8v0.1c5.1,1,8.4,4.3,8.4,10.6c0,8.3-4.2,14.1-12.9,14.1
			c-12.2,0-12.9-10.7-12.9-12.7v-0.6h5.7c0,4.2,2,9,7.3,9c3.3,0,7.3-1.7,7.3-9.4c0-5.3-2.6-8.7-8.2-8.7h-2.9L147.5,198.1
			L147.5,198.1z"/>
		<path class="st1" d="M195,223.7h-25.4c0-8.5,4.8-14.2,9.8-18.6l3.7-3.1c3.7-3.1,6-5.9,6-10.9c0-3.9-1.7-8.2-6.6-8.2
			c-7,0-7.2,7.3-7.2,9.8h-5.7c0-8.6,3.6-14.5,12.9-14.5c10.5,0,12.2,8.2,12.2,12.1c0,7-2.9,10.6-8,15l-6.4,5.6
			c-2.5,2.1-4.3,4.8-5,7.8H195L195,223.7L195,223.7z"/>
		<path class="st1" d="M133.1,260.9c-0.5,8.7-3.9,16.6-13.9,16.6c-13,0-14.8-12.3-14.8-23.9c0-11.6,2.1-23.9,14.8-23.9
			c9.4,0,13.3,5.3,13.6,14.2h-5.9c-0.1-5.2-1.8-9.6-7.6-9.6c-7.8,0-8.9,8.6-8.9,19.2s1,19.2,8.9,19.2c6.9,0,7.8-6.4,8-12
			L133.1,260.9L133.1,260.9z"/>
		<path class="st1" d="M160.9,276.6h-5.1v-4h-0.1c-1.4,3.1-5,5-8.4,5c-9.1,0-9.1-6.9-9.1-10.9v-24.4h5.4v23.8c0,2.6,0.2,6.9,5.1,6.9
			c2.9,0,6.8-1.9,6.8-6.9v-23.8h5.4V276.6z"/>
		<path class="st1" d="M168,230.7h5.4v15.3h0.1c1.2-2.9,4.5-4.8,8-4.8c9.3,0,10.5,10.9,10.5,18.1c0,9.7-3.3,18.1-11.2,18.1
			c-3.7,0-6.8-2.6-7.4-5.1h-0.2v4.2H168V230.7z M180,272.9c5,0,6.3-5.7,6.3-13.5c0-8.2-1.3-13.5-6.3-13.5c-5.8,0-7,6.8-7,13.5
			C173,266.5,174.2,272.9,180,272.9z"/>
		<path class="st1" d="M202.2,260c0,5.3,0,13.2,6.6,13.2c5.1,0,5.9-5.4,5.9-8h5.4c0,3.7-2.2,12.2-11.6,12.2
			c-8.4,0-11.9-5.9-11.9-17.7c0-8.6,1.7-18.6,12.3-18.6c10.5,0,11.5,9.2,11.5,16.6v2.2C220.4,260,202.2,260,202.2,260z M214.7,255.8
			v-1.9c0-3.9-1.2-8.4-6-8.4c-5.7,0-6.3,7-6.3,9v1.3C202.4,255.8,214.7,255.8,214.7,255.8z"/>
	</g>
	<g>
		<g>
			<g>
				<g>
					<polygon class="st0" points="103.8,30.2 180.4,1.9 265.6,24.9 251.5,112.1 192.3,169.5 118.6,119.2 					"/>
				</g>
			</g>
			<g>
				<g>
					<polygon class="st0" points="103.8,30.2 180.4,1.9 265.6,24.9 251.5,112.1 192.3,169.5 118.6,119.2 					"/>
				</g>
			</g>
			<g>
				<g>
					<polygon class="st1" points="128.9,40.3 107.4,31.2 134.4,21.1 155.9,29.1 					"/>
				</g>
			</g>
			<g>
				<g>
					<polygon class="st1" points="159.1,27.9 136.9,20.1 159.4,11.4 181.1,18.5 					"/>
				</g>
			</g>
			<g>
				<g>
					<polygon class="st1" points="183.7,17.6 161.9,10.7 181,3.7 202.9,9.6 					"/>
				</g>
			</g>
			<g>
				<g>
					<polygon class="st1" points="186.6,18.3 205,10.7 230.7,17.4 212.6,26.3 					"/>
				</g>
			</g>
			<g>
				<g>
					<polygon class="st1" points="210,27.5 184.3,19.2 161.7,29.1 188,38.3 					"/>
				</g>
			</g>
			<g>
				<g>
					<polygon class="st1" points="185.1,39.4 158.7,29.7 131.8,41 158,52.9 					"/>
				</g>
			</g>
			<g>
				<g>
					<polygon class="st1" points="191.7,39.2 213,28.2 242.8,37.6 222.4,50.6 					"/>
				</g>
			</g>
			<g>
				<g>
					<polygon class="st1" points="245.8,35.9 215.8,27 233.7,18.1 262.8,26.1 					"/>
				</g>
			</g>
			<g>
				<g>
					<polygon class="st1" points="224,52.9 243.8,40.1 240.5,71.5 220.8,86.6 					"/>
				</g>
			</g>
			<g>
				<g>
					<polygon class="st1" points="242.8,69.4 258.6,58 263.7,28.2 247.2,38.5 					"/>
				</g>
			</g>
			<g>
				<g>
					<polygon class="st1" points="241.7,73.8 258,61.4 254.1,86.6 238.2,100.4 					"/>
				</g>
			</g>
			<g>
				<g>
					<polygon class="st1" points="236.7,101.8 240.1,74.7 220.1,89.6 218.1,117.4 					"/>
				</g>
			</g>
			<g>
				<g>
					<polygon class="st1" points="215.8,119.9 218.1,91.9 194.4,107.3 193.3,138.5 					"/>
				</g>
			</g>
			<g>
				<g>
					<polygon class="st1" points="249.5,112.3 234.6,126.1 237.3,103.1 253.2,89.6 					"/>
				</g>
			</g>
			<g>
				<g>
					<polygon class="st1" points="235.5,104.7 232.8,127.7 215.3,144.9 217.1,120.8 					"/>
				</g>
			</g>
			<g>
				<g>
					<polygon class="st1" points="215.3,122.4 193.1,141.7 192.4,166.6 213.7,145.8 					"/>
				</g>
			</g>
			<g>
				<g>
					<polygon class="st1" points="191.4,139.6 191.4,108.2 162.8,94.4 164.2,121.9 					"/>
				</g>
			</g>
			<g>
				<g>
					<polygon class="st1" points="161.2,120.6 160,92.6 134.8,79.1 138,105.9 					"/>
				</g>
			</g>
			<g>
				<g>
					<polygon class="st1" points="132.3,77.2 135.5,104.7 116.2,92.4 111.4,66.2 					"/>
				</g>
			</g>
			<g>
				<g>
					<polygon class="st1" points="136.4,107.5 116.7,95.1 120.4,117.4 139.2,131.1 					"/>
				</g>
			</g>
			<g>
				<g>
					<polygon class="st1" points="138.5,108.6 161.7,123.3 163,147.6 141.2,132.5 					"/>
				</g>
			</g>
			<g>
				<g>
					<polygon class="st1" points="163.9,124.7 191,141.7 190.8,166.6 165.1,148.8 					"/>
				</g>
			</g>
			<g>
				<g>
					<polygon class="st1" points="187.1,40.3 159.8,54.8 161.2,87.5 187.6,73.1 					"/>
				</g>
			</g>
			<g>
				<g>
					<polygon class="st1" points="190.1,41 189.9,72.9 218.3,87.5 221,53.1 					"/>
				</g>
			</g>
			<g>
				<g>
					<polygon class="st1" points="160,90.4 157.7,55.3 131.3,43.3 134.6,76.6 					"/>
				</g>
			</g>
			<g>
				<g>
					<polygon class="st1" points="131.9,75 128.7,42.6 106.6,33 111.3,64.1 					"/>
				</g>
			</g>
		</g>
		<g>
			<g>
				<g>
					<path class="st1" d="M184.6,115.5c0,0-0.3,1.2-2.9-0.5c-2.6-1.7-23.4-20.3-23.4-20.3s-0.3-0.2-0.3-1.4c0-1.2-2.6-34.1-2.6-34.1
						s-0.1-0.9,1.8-1.7c1.9-0.8,32.2-11.2,32.2-11.2s1.6-0.7,3.1,0.1c1.5,0.8,25.6,14.2,25.6,14.2s0.8,0.7,0.9,3.1
						c0.1,2.4-2.3,34.5-2.3,34.5s0.3,0.6-1.1,1.2C214,100.3,184.6,115.5,184.6,115.5"/>
				</g>
			</g>
			<g>
				<g>
					<polygon class="st0" points="183,75.9 157.5,58 190.5,46.5 217.1,61.4 					"/>
				</g>
			</g>
			<g>
				<g>
					<polygon class="st0" points="183,75.9 157.5,58 190.5,46.5 217.1,61.4 					"/>
				</g>
			</g>
			<g>
				<g>
					<polygon class="st0" points="184.6,77.7 184.3,114.1 216.2,98.5 218.5,63.7 					"/>
				</g>
			</g>
			<g>
				<g>
					<polygon class="st0" points="184.6,77.7 184.3,114.1 216.2,98.5 218.5,63.7 					"/>
				</g>
			</g>
			<g>
				<g>
					<polygon class="st0" points="181.6,77.7 156.4,59.6 158.4,94 181.8,113.9 					"/>
				</g>
			</g>
			<g>
				<g>
					<polygon class="st0" points="181.6,77.7 156.4,59.6 158.4,94 181.8,113.9 					"/>
				</g>
			</g>
		</g>
	</g>
</g>
</svg>
